<?xml version="1.0" encoding="UTF-8" standalone="no"?>
<!DOCTYPE svg PUBLIC "-//W3C//DTD SVG 1.1//EN"
 "http://www.w3.org/Graphics/SVG/1.1/DTD/svg11.dtd">
<!-- Generated by graphviz version 12.1.2 (0)
 -->
<!-- Title: gui/cli/brickgame&#45;cli.c Pages: 1 -->
<svg width="271pt" height="84pt"
 viewBox="0.00 0.00 271.00 84.00" xmlns="http://www.w3.org/2000/svg" xmlns:xlink="http://www.w3.org/1999/xlink">
<g id="graph0" class="graph" transform="scale(1 1) rotate(0) translate(4 80)">
<title>gui/cli/brickgame&#45;cli.c</title>
<!-- Node1 -->
<g id="Node000001" class="node">
<title>Node1</title>
<g id="a_Node000001"><a xlink:title=" ">
<polygon fill="#999999" stroke="#666666" points="193.62,-76 83.12,-76 83.12,-56 193.62,-56 193.62,-76"/>
<text text-anchor="middle" x="138.38" y="-62.5" font-family="Helvetica,sans-Serif" font-size="10.00">gui/cli/brickgame&#45;cli.c</text>
</a>
</g>
</g>
<!-- Node2 -->
<g id="Node000002" class="node">
<title>Node2</title>
<g id="a_Node000002"><a xlink:title=" ">
<polygon fill="#e0e0e0" stroke="#999999" points="58.75,-20 0,-20 0,0 58.75,0 58.75,-20"/>
<text text-anchor="middle" x="29.38" y="-6.5" font-family="Helvetica,sans-Serif" font-size="10.00">ncurses.h</text>
</a>
</g>
</g>
<!-- Node1&#45;&gt;Node2 -->
<g id="edge1_Node000001_Node000002" class="edge">
<title>Node1&#45;&gt;Node2</title>
<g id="a_edge1_Node000001_Node000002"><a xlink:title=" ">
<path fill="none" stroke="#63b8ff" d="M119.39,-55.59C102.61,-47.28 77.88,-35.03 58.59,-25.47"/>
<polygon fill="#63b8ff" stroke="#63b8ff" points="60.38,-22.45 49.87,-21.15 57.27,-28.73 60.38,-22.45"/>
</a>
</g>
</g>
<!-- Node3 -->
<g id="Node000003" class="node">
<title>Node3</title>
<g id="a_Node000003"><a xlink:href="brickgame_8h.html" target="_top" xlink:title="Каждая библиотека с игрой должна иметь функции: userInput принимающую на вход пользовательское действ...">
<polygon fill="white" stroke="#666666" points="199.62,-20 77.12,-20 77.12,0 199.62,0 199.62,-20"/>
<text text-anchor="middle" x="138.38" y="-6.5" font-family="Helvetica,sans-Serif" font-size="10.00">brick_game/brickgame.h</text>
</a>
</g>
</g>
<!-- Node1&#45;&gt;Node3 -->
<g id="edge2_Node000001_Node000003" class="edge">
<title>Node1&#45;&gt;Node3</title>
<g id="a_edge2_Node000001_Node000003"><a xlink:title=" ">
<path fill="none" stroke="#63b8ff" d="M138.38,-55.59C138.38,-49.01 138.38,-39.96 138.38,-31.73"/>
<polygon fill="#63b8ff" stroke="#63b8ff" points="141.88,-31.81 138.38,-21.81 134.88,-31.81 141.88,-31.81"/>
</a>
</g>
</g>
<!-- Node4 -->
<g id="Node000004" class="node">
<title>Node4</title>
<g id="a_Node000004"><a xlink:title=" ">
<polygon fill="#e0e0e0" stroke="#999999" points="263,-20 217.75,-20 217.75,0 263,0 263,-20"/>
<text text-anchor="middle" x="240.38" y="-6.5" font-family="Helvetica,sans-Serif" font-size="10.00">dlfcn.h</text>
</a>
</g>
</g>
<!-- Node1&#45;&gt;Node4 -->
<g id="edge3_Node000001_Node000004" class="edge">
<title>Node1&#45;&gt;Node4</title>
<g id="a_edge3_Node000001_Node000004"><a xlink:title=" ">
<path fill="none" stroke="#63b8ff" d="M156.14,-55.59C171.7,-47.36 194.56,-35.26 212.54,-25.74"/>
<polygon fill="#63b8ff" stroke="#63b8ff" points="213.93,-28.96 221.13,-21.19 210.66,-22.77 213.93,-28.96"/>
</a>
</g>
</g>
</g>
</svg>
