<?xml version="1.0" encoding="UTF-8" standalone="no"?>
<!DOCTYPE svg PUBLIC "-//W3C//DTD SVG 1.1//EN"
 "http://www.w3.org/Graphics/SVG/1.1/DTD/svg11.dtd">
<!-- Generated by graphviz version 12.1.2 (0)
 -->
<!-- Title: brick_game/brickgame.h Pages: 1 -->
<svg width="260pt" height="84pt"
 viewBox="0.00 0.00 260.25 84.00" xmlns="http://www.w3.org/2000/svg" xmlns:xlink="http://www.w3.org/1999/xlink">
<g id="graph0" class="graph" transform="scale(1 1) rotate(0) translate(4 80)">
<title>brick_game/brickgame.h</title>
<!-- Node1 -->
<g id="Node000001" class="node">
<title>Node1</title>
<g id="a_Node000001"><a xlink:title="Каждая библиотека с игрой должна иметь функции: userInput принимающую на вход пользовательское действ...">
<polygon fill="#999999" stroke="#666666" points="190.25,-76 67.75,-76 67.75,-56 190.25,-56 190.25,-76"/>
<text text-anchor="middle" x="129" y="-62.5" font-family="Helvetica,sans-Serif" font-size="10.00">brick_game/brickgame.h</text>
</a>
</g>
</g>
<!-- Node2 -->
<g id="Node000002" class="node">
<title>Node2</title>
<g id="a_Node000002"><a xlink:href="tetris_8h.html" target="_top" xlink:title="Диаграмма переходов состояния FSM:">
<polygon fill="white" stroke="#666666" points="124,-20 0,-20 0,0 124,0 124,-20"/>
<text text-anchor="middle" x="62" y="-6.5" font-family="Helvetica,sans-Serif" font-size="10.00">brick_game/tetris/tetris.h</text>
</a>
</g>
</g>
<!-- Node1&#45;&gt;Node2 -->
<g id="edge1_Node000001_Node000002" class="edge">
<title>Node1&#45;&gt;Node2</title>
<g id="a_edge1_Node000001_Node000002"><a xlink:title=" ">
<path fill="none" stroke="#63b8ff" d="M108.41,-48.4C96.95,-39.17 83.1,-28.01 73.54,-20.3"/>
<polygon fill="#63b8ff" stroke="#63b8ff" points="106.17,-51.09 116.15,-54.64 110.56,-45.64 106.17,-51.09"/>
</a>
</g>
</g>
<!-- Node3 -->
<g id="Node000003" class="node">
<title>Node3</title>
<g id="a_Node000003"><a xlink:href="brickgame-cli_8c.html" target="_top" xlink:title=" ">
<polygon fill="white" stroke="#666666" points="252.25,-20 141.75,-20 141.75,0 252.25,0 252.25,-20"/>
<text text-anchor="middle" x="197" y="-6.5" font-family="Helvetica,sans-Serif" font-size="10.00">gui/cli/brickgame&#45;cli.c</text>
</a>
</g>
</g>
<!-- Node1&#45;&gt;Node3 -->
<g id="edge2_Node000001_Node000003" class="edge">
<title>Node1&#45;&gt;Node3</title>
<g id="a_edge2_Node000001_Node000003"><a xlink:title=" ">
<path fill="none" stroke="#63b8ff" d="M149.55,-48.68C161.25,-39.39 175.48,-28.09 185.29,-20.3"/>
<polygon fill="#63b8ff" stroke="#63b8ff" points="147.68,-45.69 142.03,-54.65 152.04,-51.17 147.68,-45.69"/>
</a>
</g>
</g>
</g>
</svg>
