<?xml version="1.0" encoding="UTF-8" standalone="no"?>
<!DOCTYPE svg PUBLIC "-//W3C//DTD SVG 1.1//EN"
 "http://www.w3.org/Graphics/SVG/1.1/DTD/svg11.dtd">
<!-- Generated by graphviz version 12.1.2 (0)
 -->
<!-- Title: finite_state_machine Pages: 1 -->
<svg width="1816pt" height="247pt"
 viewBox="0.00 0.00 2253.83 306.48" xmlns="http://www.w3.org/2000/svg" xmlns:xlink="http://www.w3.org/1999/xlink">
<g id="graph0" class="graph" transform="scale(0.805556 0.805556) rotate(0) translate(4 302.48)">
<title>finite_state_machine</title>
<polygon fill="white" stroke="none" points="-4,4 -4,-302.48 2249.83,-302.48 2249.83,4 -4,4"/>
<!-- NULL -->
<g id="node1" class="node">
<title>NULL</title>
<ellipse fill="none" stroke="black" cx="37.6" cy="-120.5" rx="33.6" ry="33.6"/>
<ellipse fill="none" stroke="black" cx="37.6" cy="-120.5" rx="37.6" ry="37.6"/>
<text text-anchor="middle" x="37.6" y="-115.08" font-family="Helvetica,Arial,sans-serif" font-size="14.00">NULL</text>
</g>
<!-- STATE_SPLASH_SCR -->
<g id="node3" class="node">
<title>STATE_SPLASH_SCR</title>
<ellipse fill="none" stroke="black" cx="340.91" cy="-120.5" rx="102.96" ry="102.96"/>
<text text-anchor="middle" x="340.91" y="-115.08" font-family="Helvetica,Arial,sans-serif" font-size="14.00">STATE_SPLASH_SCR</text>
</g>
<!-- NULL&#45;&gt;STATE_SPLASH_SCR -->
<g id="edge1" class="edge">
<title>NULL&#45;&gt;STATE_SPLASH_SCR</title>
<path fill="none" stroke="black" d="M75.55,-120.5C113.03,-120.5 172.97,-120.5 226.3,-120.5"/>
<polygon fill="black" stroke="black" points="226.06,-124 236.06,-120.5 226.06,-117 226.06,-124"/>
<text text-anchor="middle" x="156.57" y="-122.95" font-family="Helvetica,Arial,sans-serif" font-size="14.00">updateCurrentState()</text>
</g>
<!-- STATE_UNLOADED -->
<g id="node2" class="node">
<title>STATE_UNLOADED</title>
<g id="a_node2"><a xlink:href="brickgame_8h.html" target="_top" xlink:title="STATE_UNLOADED">
<ellipse fill="none" stroke="black" cx="2147.85" cy="-200.5" rx="93.98" ry="93.98"/>
<ellipse fill="none" stroke="black" cx="2147.85" cy="-200.5" rx="97.98" ry="97.98"/>
<text text-anchor="middle" x="2147.85" y="-195.08" font-family="Helvetica,Arial,sans-serif" font-size="14.00">STATE_UNLOADED</text>
</a>
</g>
</g>
<!-- STATE_SPLASH_SCR&#45;&gt;STATE_UNLOADED -->
<g id="edge3" class="edge">
<title>STATE_SPLASH_SCR&#45;&gt;STATE_UNLOADED</title>
<path fill="none" stroke="black" d="M440.08,-148.96C547.2,-178.42 724.28,-222.46 880.37,-239.5 1307.57,-286.15 1820.27,-238.89 2039.22,-213.88"/>
<polygon fill="black" stroke="black" points="2039.33,-217.39 2048.87,-212.77 2038.53,-210.44 2039.33,-217.39"/>
<text text-anchor="middle" x="1239.5" y="-261.72" font-family="Helvetica,Arial,sans-serif" font-size="14.00">pthread_cond_wait() == userInput(Terminate || Left || Right)</text>
</g>
<!-- STATE_MOVING -->
<g id="node4" class="node">
<title>STATE_MOVING</title>
<ellipse fill="none" stroke="black" cx="961.87" cy="-81.5" rx="81.5" ry="81.5"/>
<text text-anchor="middle" x="961.87" y="-76.08" font-family="Helvetica,Arial,sans-serif" font-size="14.00">STATE_MOVING</text>
</g>
<!-- STATE_SPLASH_SCR&#45;&gt;STATE_MOVING -->
<g id="edge2" class="edge">
<title>STATE_SPLASH_SCR&#45;&gt;STATE_MOVING</title>
<path fill="none" stroke="black" d="M443.92,-120.06C549.06,-118.7 717.59,-113.99 862.37,-98.5 864.89,-98.23 867.45,-97.94 870.03,-97.62"/>
<polygon fill="black" stroke="black" points="870.47,-101.09 879.93,-96.31 869.55,-94.15 870.47,-101.09"/>
<text text-anchor="middle" x="662.12" y="-122.13" font-family="Helvetica,Arial,sans-serif" font-size="14.00">pthread_cond_wait() == userInput(Start)</text>
</g>
<!-- STATE_MOVING&#45;&gt;STATE_UNLOADED -->
<g id="edge8" class="edge">
<title>STATE_MOVING&#45;&gt;STATE_UNLOADED</title>
<path fill="none" stroke="black" d="M1040.37,-104.37C1047.44,-106.21 1054.52,-107.95 1061.37,-109.5 1225.94,-146.85 1267.8,-155.86 1435.62,-173.5 1578.95,-188.57 1615.61,-181.01 1759.62,-186.5 1853.81,-190.09 1960.89,-193.95 2038.53,-196.7"/>
<polygon fill="black" stroke="black" points="2038.14,-200.19 2048.26,-197.05 2038.39,-193.19 2038.14,-200.19"/>
<text text-anchor="middle" x="1588.62" y="-188.29" font-family="Helvetica,Arial,sans-serif" font-size="14.00">pthread_cond_timedwait() == userInput(Terminate)</text>
</g>
<!-- STATE_MOVING&#45;&gt;STATE_SPLASH_SCR -->
<g id="edge6" class="edge">
<title>STATE_MOVING&#45;&gt;STATE_SPLASH_SCR</title>
<path fill="none" stroke="black" d="M880.67,-72.63C781.51,-63.58 607.94,-54.06 461.87,-78.75 457.47,-79.5 453.01,-80.38 448.54,-81.39"/>
<polygon fill="black" stroke="black" points="447.77,-77.97 438.88,-83.74 449.43,-84.77 447.77,-77.97"/>
<text text-anchor="middle" x="662.12" y="-81.2" font-family="Helvetica,Arial,sans-serif" font-size="14.00">pthread_cond_timedwait() == ETIMEDOUT &amp;&amp; isShifted() == false</text>
</g>
<!-- STATE_MOVING&#45;&gt;STATE_MOVING -->
<g id="edge4" class="edge">
<title>STATE_MOVING&#45;&gt;STATE_MOVING</title>
<path fill="none" stroke="black" d="M937.9,-159.92C941.41,-172.44 949.4,-181.01 961.87,-181.01 970.44,-181.01 976.9,-176.96 981.24,-170.36"/>
<polygon fill="black" stroke="black" points="984.4,-171.87 985.23,-161.31 977.99,-169.04 984.4,-171.87"/>
<text text-anchor="middle" x="961.87" y="-183.46" font-family="Helvetica,Arial,sans-serif" font-size="14.00">pthread_cond_timedwait() == ETIMEDOUT &#160;&amp;&amp; isShifted() == true</text>
</g>
<!-- STATE_MOVING&#45;&gt;STATE_MOVING -->
<g id="edge5" class="edge">
<title>STATE_MOVING&#45;&gt;STATE_MOVING</title>
<path fill="none" stroke="black" d="M910.68,-145.26C905.63,-174.05 922.69,-199.01 961.87,-199.01 995.84,-199.01 1013.19,-180.24 1013.9,-156.48"/>
<polygon fill="black" stroke="black" points="1017.41,-156.48 1013.17,-146.77 1010.43,-157.01 1017.41,-156.48"/>
<text text-anchor="middle" x="961.87" y="-201.46" font-family="Helvetica,Arial,sans-serif" font-size="14.00">pthread_cond_timedwait() == userInput(...)</text>
</g>
<!-- STATE_PAUSED -->
<g id="node5" class="node">
<title>STATE_PAUSED</title>
<ellipse fill="none" stroke="black" cx="1588.62" cy="-84.5" rx="80.01" ry="80.01"/>
<text text-anchor="middle" x="1588.62" y="-79.08" font-family="Helvetica,Arial,sans-serif" font-size="14.00">STATE_PAUSED</text>
</g>
<!-- STATE_MOVING&#45;&gt;STATE_PAUSED -->
<g id="edge7" class="edge">
<title>STATE_MOVING&#45;&gt;STATE_PAUSED</title>
<path fill="none" stroke="black" d="M1043.49,-86.81C1049.54,-87.09 1055.55,-87.33 1061.37,-87.5 1214.09,-92.15 1391.85,-89.45 1496.77,-87.01"/>
<polygon fill="black" stroke="black" points="1496.83,-90.51 1506.74,-86.77 1496.66,-83.51 1496.83,-90.51"/>
<text text-anchor="middle" x="1239.5" y="-92.49" font-family="Helvetica,Arial,sans-serif" font-size="14.00">pthread_cond_timedwait() == userInput(Pause)</text>
</g>
<!-- STATE_PAUSED&#45;&gt;STATE_UNLOADED -->
<g id="edge10" class="edge">
<title>STATE_PAUSED&#45;&gt;STATE_UNLOADED</title>
<path fill="none" stroke="black" d="M1667.81,-98.27C1756.43,-114.22 1905.04,-142 2031.87,-170.75 2035.18,-171.5 2038.55,-172.28 2041.94,-173.08"/>
<polygon fill="black" stroke="black" points="2040.83,-176.41 2051.37,-175.33 2042.46,-169.6 2040.83,-176.41"/>
<text text-anchor="middle" x="1895.75" y="-173.2" font-family="Helvetica,Arial,sans-serif" font-size="14.00">pthread_cond_wait() == userInput(Terminate)</text>
</g>
<!-- STATE_PAUSED&#45;&gt;STATE_MOVING -->
<g id="edge9" class="edge">
<title>STATE_PAUSED&#45;&gt;STATE_MOVING</title>
<path fill="none" stroke="black" d="M1509.03,-75.13C1480.31,-72.14 1447.54,-69.22 1417.62,-67.75 1259.48,-59.98 1219.32,-56.78 1061.37,-67.75 1059.02,-67.92 1056.63,-68.1 1054.23,-68.31"/>
<polygon fill="black" stroke="black" points="1054,-64.81 1044.38,-69.25 1054.67,-71.78 1054,-64.81"/>
<text text-anchor="middle" x="1239.5" y="-70.2" font-family="Helvetica,Arial,sans-serif" font-size="14.00">pthread_cond_wait() == userInput(Pause)</text>
</g>
</g>
</svg>
