<svg xmlns="http://www.w3.org/2000/svg" xmlns:xlink="http://www.w3.org/1999/xlink" contentStyleType="text/css" height="342px" preserveAspectRatio="none" style="width:2130px;height:342px;background:#FFFFFF;" version="1.1" viewBox="0 0 2130 342" width="2130px" zoomAndPan="magnify"><defs/><g><ellipse cx="16" cy="187" fill="#222222" rx="10" ry="10" style="stroke:#222222;stroke-width:1.0;"/><g id="STATE_SPLASH_SCR"><rect fill="#F1F1F1" height="50" rx="12.5" ry="12.5" style="stroke:#181818;stroke-width:0.5;" width="165.4961" x="210" y="162"/><line style="stroke:#181818;stroke-width:0.5;" x1="210" x2="375.4961" y1="189.6094" y2="189.6094"/><text fill="#000000" font-family="sans-serif" font-size="14" lengthAdjust="spacing" textLength="145.4961" x="220" y="181.5332">STATE_SPLASH_SCR</text></g><g id="STATE_MOVING"><rect fill="#F1F1F1" height="50" rx="12.5" ry="12.5" style="stroke:#181818;stroke-width:0.5;" width="129.6826" x="819" y="104"/><line style="stroke:#181818;stroke-width:0.5;" x1="819" x2="948.6826" y1="131.6094" y2="131.6094"/><text fill="#000000" font-family="sans-serif" font-size="14" lengthAdjust="spacing" textLength="109.6826" x="829" y="123.5332">STATE_MOVING</text></g><g id="STATE_UNLOADED"><rect fill="#F1F1F1" height="50" rx="12.5" ry="12.5" style="stroke:#181818;stroke-width:0.5;" width="150.6963" x="1973" y="150"/><line style="stroke:#181818;stroke-width:0.5;" x1="1973" x2="2123.6963" y1="177.6094" y2="177.6094"/><text fill="#000000" font-family="sans-serif" font-size="14" lengthAdjust="spacing" textLength="130.6963" x="1983" y="169.5332">STATE_UNLOADED</text></g><g id="STATE_PAUSED"><rect fill="#F1F1F1" height="50" rx="12.5" ry="12.5" style="stroke:#181818;stroke-width:0.5;" width="130.4756" x="1436" y="150"/><line style="stroke:#181818;stroke-width:0.5;" x1="1436" x2="1566.4756" y1="177.6094" y2="177.6094"/><text fill="#000000" font-family="sans-serif" font-size="14" lengthAdjust="spacing" textLength="110.4756" x="1446" y="169.5332">STATE_PAUSED</text></g><!--link *start* to STATE_SPLASH_SCR--><g id="link_*start*_STATE_SPLASH_SCR"><path d="M26.13,187 C54.41,187 136.66,187 203.7,187 " fill="none" id="*start*-to-STATE_SPLASH_SCR" style="stroke:#181818;stroke-width:1.0;"/><polygon fill="#181818" points="209.7,187,200.7,183,204.7,187,200.7,191,209.7,187" style="stroke:#181818;stroke-width:1.0;"/><text fill="#000000" font-family="sans-serif" font-size="13" lengthAdjust="spacing" textLength="122.1226" x="57" y="183.4951">updateCurrentState()</text></g><!--link STATE_SPLASH_SCR to STATE_MOVING--><g id="link_STATE_SPLASH_SCR_STATE_MOVING"><path d="M375.28,172.22 C385.27,170.66 395.36,169.21 405,168 C552.46,149.45 720.6901,138.1585 812.6501,132.8085 " fill="none" id="STATE_SPLASH_SCR-to-STATE_MOVING" style="stroke:#181818;stroke-width:1.0;"/><polygon fill="#181818" points="818.64,132.46,809.4229,128.9895,813.6484,132.7504,809.8875,136.976,818.64,132.46" style="stroke:#181818;stroke-width:1.0;"/><text fill="#000000" font-family="sans-serif" font-size="13" lengthAdjust="spacing" textLength="231.2388" x="481.5" y="131.4951">pthread_cond_wait() == userInput(Start)</text></g><!--link STATE_MOVING to STATE_SPLASH_SCR--><g id="link_STATE_MOVING_STATE_SPLASH_SCR"><path d="M856.2,154.15 C838.58,168.9 814.19,186.13 789,194 C648.77,237.76 481.0885,221.0153 381.0185,204.3553 " fill="none" id="STATE_MOVING-to-STATE_SPLASH_SCR" style="stroke:#181818;stroke-width:1.0;"/><polygon fill="#181818" points="375.1,203.37,383.3209,208.7937,380.0321,204.1911,384.6347,200.9023,375.1,203.37" style="stroke:#181818;stroke-width:1.0;"/><text fill="#000000" font-family="sans-serif" font-size="13" lengthAdjust="spacing" textLength="382.2178" x="406" y="190.4951">pthread_cond_timedwait() == ETIMEDOUT &amp;&amp; isShifted() == false</text></g><!--link STATE_SPLASH_SCR to STATE_UNLOADED--><g id="link_STATE_SPLASH_SCR_STATE_UNLOADED"><path d="M347.09,212.03 C365.1,219.25 385.55,226.2 405,230 C947.68,335.91 1098.21,265.44 1649,217 C1761.96,207.06 1886.6683,193.4271 1966.6983,184.3371 " fill="none" id="STATE_SPLASH_SCR-to-STATE_UNLOADED" style="stroke:#181818;stroke-width:1.0;"/><polygon fill="#181818" points="1972.66,183.66,1963.2661,180.7013,1967.6919,184.2243,1964.1689,188.6502,1972.66,183.66" style="stroke:#181818;stroke-width:1.0;"/><text fill="#000000" font-family="sans-serif" font-size="13" lengthAdjust="spacing" textLength="342.291" x="980" y="247.4951">pthread_cond_wait() == userInput(Terminate || Left || Right)</text></g><!--link STATE_MOVING to STATE_MOVING--><g id="link_STATE_MOVING_STATE_MOVING"><path d="M861.5,103.72 C854.68,86.22 862.18,69 884,69 C905.82,69 915.4987,80.6295 908.6787,98.1295 " fill="none" id="STATE_MOVING-to-STATE_MOVING" style="stroke:#181818;stroke-width:1.0;"/><polygon fill="#181818" points="906.5,103.72,913.495,96.7868,908.3156,99.0613,906.041,93.8818,906.5,103.72" style="stroke:#181818;stroke-width:1.0;"/><text fill="#000000" font-family="sans-serif" font-size="13" lengthAdjust="spacing" textLength="377.1587" x="695.5" y="60.4951">pthread_cond_timedwait() == ETIMEDOUT &amp;&amp; isShifted() == true</text></g><!--link STATE_MOVING to STATE_MOVING--><g id="link_STATE_MOVING_STATE_MOVING"><path d="M849.04,103.7 C820.91,71.88 832.57,34 884,34 C935.43,34 951.064,67.3847 922.934,99.2047 " fill="none" id="STATE_MOVING-to-STATE_MOVING-1" style="stroke:#181818;stroke-width:1.0;"/><polygon fill="#181818" points="918.96,103.7,927.9178,99.6064,922.2716,99.9539,921.9241,94.3078,918.96,103.7" style="stroke:#181818;stroke-width:1.0;"/><text fill="#000000" font-family="sans-serif" font-size="13" lengthAdjust="spacing" textLength="246.4097" x="761" y="25.4951">pthread_cond_timedwait() == userInput(...)</text></g><!--link STATE_MOVING to STATE_PAUSED--><g id="link_STATE_MOVING_STATE_PAUSED"><path d="M949.08,133.79 C1067.06,142.61 1311.4067,160.8926 1429.6267,169.7326 " fill="none" id="STATE_MOVING-to-STATE_PAUSED" style="stroke:#181818;stroke-width:1.0;"/><polygon fill="#181818" points="1435.61,170.18,1426.9333,165.52,1430.6239,169.8072,1426.3368,173.4978,1435.61,170.18" style="stroke:#181818;stroke-width:1.0;"/><text fill="#000000" font-family="sans-serif" font-size="13" lengthAdjust="spacing" textLength="272.4351" x="1015" y="133.4951">pthread_cond_timedwait() == userInput(Pause)</text></g><!--link STATE_PAUSED to STATE_MOVING--><g id="link_STATE_PAUSED_STATE_MOVING"><path d="M1435.88,188.74 C1335.98,207.47 1138.12,233.79 979,188 C955.86,181.33 937.7347,170.6632 920.3047,157.8532 " fill="none" id="STATE_PAUSED-to-STATE_MOVING" style="stroke:#181818;stroke-width:1.0;"/><polygon fill="#181818" points="915.47,154.3,920.3533,162.853,919.4989,157.261,925.0909,156.4067,915.47,154.3" style="stroke:#181818;stroke-width:1.0;"/><text fill="#000000" font-family="sans-serif" font-size="13" lengthAdjust="spacing" textLength="240.646" x="1031" y="184.4951">pthread_cond_wait() == userInput(Pause)</text></g><!--link STATE_MOVING to STATE_UNLOADED--><g id="link_STATE_MOVING_STATE_UNLOADED"><path d="M949.24,115.03 C959.16,113.35 969.32,111.91 979,111 C1131.21,96.55 1170.18,106.32 1323,111 C1598.94,119.44 1670.13,107.05 1943,149 C1952.7,150.49 1956.9603,151.1703 1966.9103,153.3603 " fill="none" id="STATE_MOVING-to-STATE_UNLOADED" style="stroke:#181818;stroke-width:1.0;"/><polygon fill="#181818" points="1972.77,154.65,1964.8402,148.8089,1967.8869,153.5752,1963.1206,156.6219,1972.77,154.65" style="stroke:#181818;stroke-width:1.0;"/><text fill="#000000" font-family="sans-serif" font-size="13" lengthAdjust="spacing" textLength="294.0933" x="1354" y="109.4951">pthread_cond_timedwait() == userInput(Terminate)</text></g><!--link STATE_PAUSED to STATE_UNLOADED--><g id="link_STATE_PAUSED_STATE_UNLOADED"><path d="M1566.18,175 C1667.71,175 1858.88,175 1966.68,175 " fill="none" id="STATE_PAUSED-to-STATE_UNLOADED" style="stroke:#181818;stroke-width:1.0;"/><polygon fill="#181818" points="1972.68,175,1963.68,171,1967.68,175,1963.68,179,1972.68,175" style="stroke:#181818;stroke-width:1.0;"/><text fill="#000000" font-family="sans-serif" font-size="13" lengthAdjust="spacing" textLength="262.3042" x="1680" y="171.4951">pthread_cond_wait() == userInput(Terminate)</text></g><!--SRC=[fPBHQeCm58RlVOfpLSoWFi2W0wco2RPA4tSpXeGcpa0R9PwmcpxyKbQK8jc6kyg1v7pvJlwSP8E07HZrqI88PUGHLQU3uEtX7TRh9w0iPcbDopocBpNT7k0HR2yuogqrHcgawEgG1C7iuDIzArwp_RFhxB4raelws6bHVtA58O7D1kmWJQPxYw6Z6IG_iQfzNiH9clo5ngGvA-tyu7A1_3gfMm_NIKVVczflhgZEKanNf2pRfKbHCLYjG0sqLGrAyRs7nif_mIV_A8g83tMNo5BNXfy6hsmPLtJ-pbxPahlQg-kBpOiRinkZklai-LPtRZFEeYz5lW00]--></g></svg>