<?xml version="1.0" encoding="UTF-8" standalone="no"?>
<!DOCTYPE svg PUBLIC "-//W3C//DTD SVG 1.1//EN"
 "http://www.w3.org/Graphics/SVG/1.1/DTD/svg11.dtd">
<!-- Generated by graphviz version 12.1.2 (0)
 -->
<!-- Title: brick_game/tetris/tetris.h Pages: 1 -->
<svg width="279pt" height="84pt"
 viewBox="0.00 0.00 278.50 84.00" xmlns="http://www.w3.org/2000/svg" xmlns:xlink="http://www.w3.org/1999/xlink">
<g id="graph0" class="graph" transform="scale(1 1) rotate(0) translate(4 80)">
<title>brick_game/tetris/tetris.h</title>
<!-- Node1 -->
<g id="Node000001" class="node">
<title>Node1</title>
<g id="a_Node000001"><a xlink:title="Диаграмма переходов состояния FSM:">
<polygon fill="#999999" stroke="#666666" points="230.25,-76 106.25,-76 106.25,-56 230.25,-56 230.25,-76"/>
<text text-anchor="middle" x="168.25" y="-62.5" font-family="Helvetica,sans-Serif" font-size="10.00">brick_game/tetris/tetris.h</text>
</a>
</g>
</g>
<!-- Node2 -->
<g id="Node000002" class="node">
<title>Node2</title>
<g id="a_Node000002"><a xlink:href="brickgame_8h.html" target="_top" xlink:title="Каждая библиотека с игрой должна иметь функции: userInput принимающую на вход пользовательское действ...">
<polygon fill="white" stroke="#666666" points="122.5,-20 0,-20 0,0 122.5,0 122.5,-20"/>
<text text-anchor="middle" x="61.25" y="-6.5" font-family="Helvetica,sans-Serif" font-size="10.00">brick_game/brickgame.h</text>
</a>
</g>
</g>
<!-- Node1&#45;&gt;Node2 -->
<g id="edge1_Node000001_Node000002" class="edge">
<title>Node1&#45;&gt;Node2</title>
<g id="a_edge1_Node000001_Node000002"><a xlink:title=" ">
<path fill="none" stroke="#63b8ff" d="M149.61,-55.59C133.22,-47.32 109.09,-35.14 90.19,-25.6"/>
<polygon fill="#63b8ff" stroke="#63b8ff" points="91.89,-22.54 81.38,-21.16 88.74,-28.79 91.89,-22.54"/>
</a>
</g>
</g>
<!-- Node3 -->
<g id="Node000003" class="node">
<title>Node3</title>
<g id="a_Node000003"><a xlink:title=" ">
<polygon fill="#e0e0e0" stroke="#999999" points="196.12,-20 140.38,-20 140.38,0 196.12,0 196.12,-20"/>
<text text-anchor="middle" x="168.25" y="-6.5" font-family="Helvetica,sans-Serif" font-size="10.00">stdbool.h</text>
</a>
</g>
</g>
<!-- Node1&#45;&gt;Node3 -->
<g id="edge2_Node000001_Node000003" class="edge">
<title>Node1&#45;&gt;Node3</title>
<g id="a_edge2_Node000001_Node000003"><a xlink:title=" ">
<path fill="none" stroke="#63b8ff" d="M168.25,-55.59C168.25,-49.01 168.25,-39.96 168.25,-31.73"/>
<polygon fill="#63b8ff" stroke="#63b8ff" points="171.75,-31.81 168.25,-21.81 164.75,-31.81 171.75,-31.81"/>
</a>
</g>
</g>
<!-- Node4 -->
<g id="Node000004" class="node">
<title>Node4</title>
<g id="a_Node000004"><a xlink:title=" ">
<polygon fill="#e0e0e0" stroke="#999999" points="270.5,-20 214,-20 214,0 270.5,0 270.5,-20"/>
<text text-anchor="middle" x="242.25" y="-6.5" font-family="Helvetica,sans-Serif" font-size="10.00">pthread.h</text>
</a>
</g>
</g>
<!-- Node1&#45;&gt;Node4 -->
<g id="edge3_Node000001_Node000004" class="edge">
<title>Node1&#45;&gt;Node4</title>
<g id="a_edge3_Node000001_Node000004"><a xlink:title=" ">
<path fill="none" stroke="#63b8ff" d="M181.14,-55.59C191.96,-47.7 207.66,-36.24 220.44,-26.92"/>
<polygon fill="#63b8ff" stroke="#63b8ff" points="222.27,-29.91 228.29,-21.19 218.14,-24.26 222.27,-29.91"/>
</a>
</g>
</g>
</g>
</svg>
